# xmcd
#
# Track frame offsets: 
#        150
#        13929
#        26827
#        45126
#        63963
#        78792
#        94811
#        107525
#        118996
#        130746
#        148928
#        163087
#
# Disc length: 2556 seconds
#
# Revision: 3
# Processed by: cddbd v1.4PL0 Copyright (c) Steve Scherf et al.
# Submitted via: ExactAudioCopy v0.90b4
#
DISCID=9b09fa0c
DTITLE=Dallas Wayne - Big Thinkin'
DYEAR=2000
DGENRE=Country
TTITLE0=Big Thinkin'
TTITLE1=She'll Go Down (In Honky Tonk History)
TTITLE2=The Only Way To Die
TTITLE3=Lie, Memory, Lie
TTITLE4=If That's Country
TTITLE5=I'm Back (And Lonelier Than Ever)
TTITLE6=Rock Bottom, Pop.1
TTITLE7=Old 45's
TTITLE8=The Temptress's Smile
TTITLE9=Coldwater, Tennessee
TTITLE10=We Never Killed Each Other (But Didn't We Try)
TTITLE11=Raelene Wheeler
EXTD=
EXTT0=
EXTT1=
EXTT2=
EXTT3=
EXTT4=
EXTT5=
EXTT6=
EXTT7=
EXTT8=
EXTT9=
EXTT10=
EXTT11=
PLAYORDER=
